<?xml version="1.0" standalone="no"?>
<!DOCTYPE svg PUBLIC "-//W3C//DTD SVG 20010904//EN"
 "http://www.w3.org/TR/2001/REC-SVG-20010904/DTD/svg10.dtd">
<svg version="1.0" xmlns="http://www.w3.org/2000/svg"
 width="799.000000pt" height="471.000000pt" viewBox="0 0 799.000000 471.000000"
 preserveAspectRatio="xMidYMid meet">

<g transform="translate(0.000000,471.000000) scale(0.100000,-0.100000)"
fill="#000000" stroke="none">
<path d="M3295 4148 c-3 -7 -4 -411 -3 -898 l3 -885 698 -3 697 -2 0 900 0
900 -695 0 c-547 0 -697 -3 -700 -12z m479 -418 c186 -295 222 -346 231 -332
6 9 105 167 220 350 l209 332 73 0 c40 0 73 -2 73 -4 0 -3 -575 -922 -584
-933 -2 -3 -579 914 -584 928 -2 5 29 9 70 9 l73 0 219 -350z m124 193 l95
-153 51 80 c28 44 72 114 98 155 l47 75 77 0 76 0 -14 -22 c-9 -13 -82 -129
-163 -258 -81 -129 -153 -243 -160 -253 -11 -15 -32 14 -170 235 -88 139 -165
263 -173 276 l-15 23 78 -3 78 -3 95 -152z m192 152 c0 -6 -78 -134 -90 -148
-6 -7 -100 131 -100 147 0 3 43 6 95 6 52 0 95 -2 95 -5z m-650 -200 l50 -79
0 -678 0 -678 -60 0 -60 0 0 767 c0 519 3 764 10 757 6 -6 33 -46 60 -89z
m1170 -670 l0 -765 -60 0 -60 0 0 671 0 671 58 94 c31 51 58 93 60 94 1 0 2
-344 2 -765z m-920 -245 l0 -520 -60 0 -60 0 0 613 0 612 60 -93 60 -93 0
-519z m720 85 l0 -605 -60 0 -60 0 0 511 0 512 58 93 c31 52 58 94 60 94 1 0
2 -272 2 -605z m-564 185 c98 -156 98 -140 4 -140 l-80 0 0 127 c0 69 2 124 5
121 3 -2 35 -51 71 -108z m364 -20 l0 -120 -76 0 c-42 0 -74 4 -72 8 5 13 142
232 145 232 2 0 3 -54 3 -120z m0 -260 l0 -60 -220 0 -220 0 0 60 0 60 220 0
220 0 0 -60z m0 -200 l0 -60 -220 0 -220 0 0 60 0 60 220 0 220 0 0 -60z m0
-225 l0 -85 -220 0 -220 0 0 85 0 85 220 0 220 0 0 -85z"/>
<path d="M7183 1890 c-93 -19 -143 -70 -143 -145 0 -84 43 -121 181 -155 110
-27 149 -55 149 -106 0 -93 -146 -125 -272 -60 -40 21 -53 24 -60 14 -28 -44
58 -91 178 -96 140 -6 214 45 214 149 0 82 -39 114 -185 150 -102 26 -145 55
-145 101 0 16 5 38 11 50 26 48 141 63 231 28 28 -11 53 -18 55 -17 1 2 4 14
5 27 3 20 -4 27 -42 41 -60 22 -125 29 -177 19z"/>
<path d="M681 1623 c-67 -148 -121 -271 -121 -275 0 -5 13 -8 29 -8 26 0 31 7
61 75 l33 75 149 0 149 0 35 -75 c32 -70 37 -75 65 -75 38 0 49 -33 -99 292
-116 256 -117 258 -148 258 -31 0 -31 -1 -153 -267z m226 37 l51 -115 -120 -3
c-66 -1 -122 -1 -125 1 -2 2 20 55 48 118 28 63 55 125 61 139 l10 25 11 -25
c7 -14 35 -77 64 -140z"/>
<path d="M1360 1616 l0 -276 30 0 30 0 0 85 0 85 85 0 c115 0 179 15 222 53
96 84 82 236 -27 297 -41 23 -57 25 -192 28 l-148 4 0 -276z m306 199 c63 -37
83 -119 44 -183 -29 -48 -72 -62 -190 -62 l-100 0 0 136 0 137 108 -5 c80 -3
116 -9 138 -23z"/>
<path d="M2186 1838 c-13 -29 -68 -147 -121 -263 -53 -115 -99 -216 -102 -222
-3 -9 5 -13 27 -13 29 0 33 5 66 75 l35 76 150 -3 151 -3 31 -72 c30 -69 33
-73 64 -73 39 0 50 -33 -100 295 -112 244 -116 250 -146 253 -29 3 -33 0 -55
-50z m117 -157 c31 -71 57 -132 57 -135 0 -3 -56 -6 -124 -6 l-125 0 62 135
c33 74 63 135 67 135 3 0 32 -58 63 -129z"/>
<path d="M2770 1615 l0 -275 30 0 30 0 0 85 0 85 79 0 c44 0 85 2 93 5 8 3 37
-30 76 -85 55 -78 67 -90 93 -90 16 0 29 3 29 6 0 4 -28 45 -61 92 -57 79 -60
87 -43 97 107 60 136 199 58 285 -51 56 -102 70 -256 70 l-128 0 0 -275z m297
201 c46 -23 67 -60 67 -116 0 -98 -51 -130 -203 -130 l-101 0 0 136 0 137 103
-5 c68 -3 113 -10 134 -22z"/>
<path d="M3400 1865 c0 -25 0 -25 95 -25 l95 0 0 -250 0 -250 30 0 30 0 0 250
0 250 95 0 c95 0 95 0 95 25 l0 25 -220 0 -220 0 0 -25z"/>
<path d="M4092 1618 l3 -273 27 -3 28 -3 2 213 3 213 104 -177 c67 -114 110
-178 120 -178 10 0 53 64 116 174 l100 173 5 -206 5 -206 28 -3 27 -3 0 275 0
276 -24 0 c-20 0 -40 -27 -137 -195 -62 -107 -116 -195 -120 -195 -3 0 -58 88
-120 195 -105 179 -116 195 -142 195 l-27 0 2 -272z"/>
<path d="M5000 1615 l0 -275 196 0 195 0 -3 28 -3 27 -162 3 -163 2 0 95 0 95
140 0 140 0 0 30 0 30 -140 0 -140 0 0 95 0 95 160 0 160 0 0 25 0 25 -190 0
-190 0 0 -275z"/>
<path d="M5680 1615 l0 -275 30 0 30 0 0 215 c0 118 3 215 8 214 4 0 83 -97
175 -215 137 -174 173 -214 193 -214 l24 0 0 275 0 275 -30 0 -30 0 -2 -216
-3 -216 -170 215 c-147 187 -174 216 -197 217 l-28 0 0 -275z"/>
<path d="M6390 1865 c0 -25 0 -25 95 -25 l95 0 0 -250 0 -250 30 0 30 0 0 250
0 250 100 0 100 0 0 25 0 25 -225 0 -225 0 0 -25z"/>
<path d="M3695 955 c-155 -54 -130 -290 32 -312 187 -25 261 230 89 308 -49
22 -68 23 -121 4z m99 -55 c68 -26 83 -122 26 -172 -68 -62 -170 -18 -170 74
1 81 68 127 144 98z"/>
<path d="M5131 948 c-52 -27 -79 -60 -91 -111 -25 -112 79 -214 195 -193 42 8
98 54 115 96 17 42 8 121 -19 159 -46 64 -131 85 -200 49z m119 -53 c37 -19
50 -43 50 -95 0 -33 -6 -48 -29 -71 -81 -81 -219 18 -167 120 29 55 91 75 146
46z"/>
<path d="M6153 956 c-71 -32 -88 -122 -34 -177 81 -80 222 9 178 113 -28 65
-85 90 -144 64z m83 -61 c25 -26 26 -52 2 -82 -13 -16 -70 -17 -86 -1 -21 21
-15 75 10 92 31 22 45 20 74 -9z"/>
<path d="M1260 805 l0 -155 38 -1 c129 -4 123 -5 153 29 31 35 39 90 18 135
-21 47 -94 71 -140 47 -18 -10 -19 -7 -19 45 0 52 -1 55 -25 55 l-25 0 0 -155z
m150 -5 c47 -47 -1 -124 -63 -101 -59 23 -40 121 23 121 11 0 29 -9 40 -20z"/>
<path d="M1970 805 l0 -155 30 0 29 0 3 103 3 102 39 -72 c31 -59 43 -73 62
-73 19 0 31 15 64 73 l40 72 0 -102 0 -103 30 0 30 0 0 155 0 155 -33 0 c-31
0 -36 -5 -81 -86 l-48 -87 -50 87 c-47 82 -51 86 -84 86 l-34 0 0 -155z"/>
<path d="M2442 808 c-40 -85 -72 -157 -72 -161 0 -4 11 -7 25 -7 19 0 31 10
46 35 21 34 22 35 88 35 67 0 67 0 84 -35 13 -26 23 -35 42 -35 14 0 25 6 24
13 -1 28 -136 302 -150 305 -12 2 -36 -40 -87 -150z m112 -10 l15 -38 -44 0
-45 0 22 45 c24 49 29 48 52 -7z"/>
<path d="M2750 806 l0 -156 30 0 30 0 0 60 c0 59 1 60 28 60 22 0 35 -12 67
-60 35 -52 44 -60 73 -60 37 0 37 -1 -15 71 -37 53 -39 59 -18 59 9 0 27 11
40 25 35 34 34 93 -1 126 -23 22 -36 24 -130 27 l-104 4 0 -156z m194 88 c20
-20 20 -33 -1 -56 -12 -13 -31 -18 -75 -18 l-58 0 0 45 0 45 59 0 c41 0 65 -5
75 -16z"/>
<path d="M3100 805 l0 -155 30 0 30 0 0 61 c0 60 0 60 27 57 21 -2 38 -18 67
-60 35 -51 44 -58 73 -58 l34 0 -41 59 c-44 66 -46 71 -26 71 25 0 66 51 66
82 0 73 -44 98 -170 98 l-90 0 0 -155z m194 86 c35 -38 -4 -71 -83 -71 l-51 0
0 45 0 45 58 0 c45 0 63 -5 76 -19z"/>
<path d="M3450 799 l0 -160 28 3 27 3 3 158 3 157 -31 0 -30 0 0 -161z"/>
<path d="M3950 935 c0 -23 4 -25 45 -25 l44 0 3 -132 3 -133 28 -3 27 -3 0
135 0 136 50 0 c47 0 50 2 50 25 l0 25 -125 0 -125 0 0 -25z"/>
<path d="M4240 935 c0 -23 3 -25 50 -25 l50 0 0 -136 0 -135 28 3 27 3 3 133
3 132 44 0 c41 0 45 2 45 25 l0 25 -125 0 -125 0 0 -25z"/>
<path d="M4720 805 l0 -155 96 0 c95 0 128 8 151 39 18 23 16 81 -3 102 -14
15 -14 22 -3 54 11 31 11 40 -2 63 -22 41 -55 52 -151 52 l-88 0 0 -155z m174
99 c19 -7 21 -45 4 -62 -7 -7 -36 -12 -65 -12 l-53 0 0 40 0 40 49 0 c27 0 56
-3 65 -6z m28 -149 c18 -40 -3 -55 -78 -55 l-64 0 0 40 0 40 65 0 c60 0 66 -2
77 -25z"/>
<path d="M5420 805 l0 -155 30 0 29 0 3 95 3 96 83 -96 c52 -59 90 -95 103
-95 18 0 19 8 19 155 l0 155 -30 0 -29 0 -3 -97 -3 -97 -85 97 c-47 53 -93 97
-102 97 -16 0 -18 -14 -18 -155z"/>
<path d="M5743 948 c2 -7 33 -77 68 -155 44 -101 68 -143 79 -143 12 0 36 43
81 147 35 80 66 150 68 155 2 5 -12 8 -30 6 -32 -3 -35 -7 -73 -95 -21 -51
-42 -93 -46 -93 -4 0 -25 42 -46 93 -38 88 -41 92 -73 95 -25 3 -32 0 -28 -10z"/>
<path d="M6346 948 c4 -7 31 -44 58 -83 48 -66 51 -74 56 -145 5 -73 6 -75 33
-78 l27 -3 0 70 0 71 65 90 65 90 -34 0 c-31 0 -39 -6 -77 -60 -23 -33 -45
-60 -48 -60 -3 0 -24 27 -46 60 -35 53 -44 60 -73 60 -24 0 -31 -4 -26 -12z"/>
<path d="M6672 948 c-18 -18 -15 -36 7 -48 15 -7 23 -6 35 6 9 8 16 19 16 23
0 11 -23 31 -35 31 -6 0 -16 -5 -23 -12z m47 -21 c0 -9 -2 -8 -6 1 -2 6 -10 9
-15 6 -7 -4 -8 -2 -4 5 9 13 26 5 25 -12z m-42 -9 c-3 -8 -6 -5 -6 6 -1 11 2
17 5 13 3 -3 4 -12 1 -19z"/>
<path d="M1520 862 c0 -6 19 -49 42 -97 l41 -87 -26 -54 c-33 -67 -33 -74 -2
-74 22 0 33 17 100 150 41 82 75 154 75 160 0 5 -11 10 -25 10 -21 0 -31 -11
-57 -66 l-33 -65 -30 63 c-25 52 -35 64 -57 66 -16 2 -28 -1 -28 -6z"/>
<path d="M6060 670 l0 -30 135 0 135 0 0 30 0 30 -135 0 -135 0 0 -30z"/>
</g>
</svg>
