<?xml version="1.0" encoding="UTF-8"?> <svg xmlns="http://www.w3.org/2000/svg" version="1.1" width="975" height="512" viewBox="0 0 975 512"><title>Aloft Hotels®</title><path d="M271.584 245.533c-39.511 4.063-76.851 7.505-116.579 11.754-16.654 2.016-29.276 13.987-29.276 34.425 0 8.715 0.186-1.209 0.186 7.505 0 15.786 11.63 27.54 30.083 27.54h87.489c22.268 0 28.687-19.042 28.284-37.061-0.403-18.825-0.186-24.904-0.186-44.163z"></path><path d="M102.437 306.692v-19.849c0-28.16 18.453-46.986 48.164-51.451 40.721-5.675 121.976-14.98 121.976-14.98v-23.911c0.807-20.469-11.041-34.022-33.309-28.966-36.906 6.264-71.641 10.947-109.942 17.833v-22.888c37.123-7.288 60.972-11.134 97.692-18.236 56.382-11.134 67.423 8.901 67.423 48.008 0 31.602-0.403 45.559-0.217 77.379v16.406c0 25.927 13.243 37.278 18.67 38.891 2.202-4.869 2.605-11.134 2.605-18.825v-231.546c0-39.077-27.695-28.16-52.382-22.267-24.873 5.675-150.26 38.674-190.205 48.815-39.914 10.111-41.527 23.291-41.527 47.389v147.469c0 37.278 10.421 41.527 40.349 41.527h44.752c-8.436-7.505-14.235-18.019-14.049-30.796z"></path><path d="M903.172 190.639v-19.228c-17.244-1.613-30.889-3.040-43.946-4.249v-28.346c-8.436-1.024-12.654-1.613-20.872-2.636v29.184c-12.033-1.209-6.606-0.589-22.268-2.016v19.849c15.662 1.427 10.235 0.806 22.268 1.83v106.748c0 39.697 44.349 44.969 48.753 45.373v-18.825c-8.218-0.807-27.881-5.055-27.881-26.95v-104.515c13.025 1.209 26.672 2.233 43.946 3.845z"></path><path d="M368.687 337.271v-302.815c8.435 1.209 12.654 1.612 21.275 2.822v299.993h-21.275z"></path><path d="M583.579 337.488h-84.853c-34.518 0-54.18-17.212-54.18-58.119v-100.887c0-40.504 18.67-58.119 54.366-54.677 33.898 3.442 50.769 5.055 84.667 8.498 34.921 3.442 51.761 24.315 51.761 60.166v92.358c-0.403 36.038-17.461 52.661-51.761 52.661zM613.879 193.462c0-24.5-11.227-36.471-34.301-38.488-31.106-2.822-46.551-4.063-77.44-6.885-23.074-2.016-36.13 7.102-36.13 34.828v94.001c0 27.137 13.832 36.471 36.13 36.658h77.844c21.275 0.217 33.898-7.909 33.898-32.006v-88.109z"></path><path d="M857.241 67.268c-13.242-2.233-23.477-3.846-38.519-1.023-20.066 3.846-62.213 13.367-89.071 22.484-4.807 1.427-7.226 2.233-12.033 3.846-25.090 7.909-43.139 13.987-43.139 49.218v195.663h20.872v-164.464c31.913 2.636 47.947 4.249 84.077 7.288v-20.251c-36.317-3.442-52.164-5.273-84.077-8.311v-7.909c0-20.872 7.009-23.291 30.486-30.983 5.024-1.612 7.412-2.419 12.437-4.063 26.299-8.901 67.423-18.639 87.272-22.671 11.444-2.233 18.856-1.21 31.293 0.806 3.412 0.621 5.21 0.806 8.839 1.21v-19.445c-3.412-0.621-5.21-1.023-8.436-1.427z"></path><path d="M320.74 414.463v23.911h-27.292v-23.911h-10.421v59.732h10.421v-26.3h27.292v26.3h10.421v-59.732h-10.421z"></path><path d="M399.39 413.036c18.267-0.403 31.106 12.157 31.106 31.2s-12.839 30.983-31.106 31.385c-18.050 0-30.889-12.344-30.889-30.983s12.839-31.603 30.889-31.603zM399.39 466.1c12.219 0 20.065-9.521 20.065-22.082 0-11.754-8.033-21.275-20.065-21.275s-20.065 9.304-20.065 21.275c0 12.56 8.033 22.082 20.065 22.082z"></path><path d="M461.789 414.463v9.707h17.832v50.024h10.452v-50.024h17.863v-9.707h-46.148z"></path><path d="M542.424 414.463v59.732h40.131v-9.707h-29.68v-16.22h26.889v-9.521h-26.889v-14.577h28.284v-9.707h-38.736z"></path><path d="M620.268 414.463v59.732h35.324v-9.707h-24.872v-50.024h-10.452z"></path><path d="M719.201 427.426c-2.202-3.257-6.234-4.652-10.235-4.652-4.807 0-9.645 2.233-9.645 7.692 0 11.94 27.695 5.055 27.695 26.331 0 12.747-9.831 19.042-21.275 19.042-7.226 0-14.235-2.233-19.073-8.094l7.816-7.692c2.605 4.063 7.009 6.264 11.63 6.264s10.235-2.636 10.235-8.094c0-12.964-27.695-5.675-27.695-26.95 0-12.344 10.638-18.019 21.462-18.019 6.016 0 12.25 1.83 16.841 6.079l-7.816 8.094z"></path><path d="M930.867 167.938c8.436 0 15.444 6.885 15.444 15.817s-7.009 15.817-15.444 15.817-15.444-6.885-15.444-15.817c-0.217-9.118 6.823-15.817 15.444-15.817zM930.867 197.090c7.009 0 12.654-5.862 12.654-13.584s-5.614-13.584-12.654-13.584-12.654 5.862-12.654 13.584c-0.217 7.691 5.428 13.584 12.654 13.584zM924.85 174.419h6.823c4.218 0 6.42 1.83 6.42 5.273s-2.016 4.652-4.807 5.055l5.21 8.095h-3.009l-4.807-7.909h-3.009v7.909h-2.822v-18.422zM927.673 182.731h2.822c2.419 0 4.807-0.186 4.807-3.040 0-2.636-2.202-2.822-4-2.822h-3.597v5.862z"></path></svg> 